<?xml version="1.0" encoding="iso-8859-1"?>
<!-- Generator: Adobe Illustrator 18.0.0, SVG Export Plug-In . SVG Version: 6.00 Build 0)  -->
<!DOCTYPE svg PUBLIC "-//W3C//DTD SVG 1.1//EN" "http://www.w3.org/Graphics/SVG/1.1/DTD/svg11.dtd">
<svg xmlns="http://www.w3.org/2000/svg" xmlns:xlink="http://www.w3.org/1999/xlink" version="1.1" id="Capa_1" x="0px" y="0px" viewBox="0 0 493.442 493.442" style="enable-background:new 0 0 493.442 493.442;" xml:space="preserve" width="512px" height="512px">
<g>
	<path d="M173.805,324.405c2.521,0,5.012,0.258,7.471,0.777c4.756-14.519,18.439-25.032,34.533-25.032h27.934   c7.441,0,14.301,2.313,20.057,6.146c0.715-4.828,2.297-9.536,4.807-13.893l17.598-30.492c5.256-9.097,13.73-15.601,23.891-18.317   c3.297-0.889,6.727-1.342,10.176-1.342c4.836,0,9.607,0.889,14.086,2.611c1.846-11.638,8.797-21.568,18.488-27.457H201.527   c-8.686,0-15.727-7.045-15.727-15.739V48.05c0-4.424-1.875-8.646-5.143-11.63c-3.264-2.977-7.648-4.441-12.066-4.034   C74.049,41.062,0,120.588,0,217.405C0,298.467,52.004,367.221,124.402,392.6c-1.842-8.518-0.746-17.705,3.947-25.833l13.992-24.247   c4.869-8.395,12.713-14.387,22.031-16.871C167.445,324.824,170.629,324.405,173.805,324.405z" fill="#FFFFFF"/>
	<path d="M233.842,185.062h153.604c4.43,0,8.637-1.866,11.631-5.134c2.973-3.267,4.443-7.652,4.027-12.059   C394.951,79.002,324.164,8.236,235.301,0.074c-4.398-0.404-8.77,1.067-12.037,4.044c-3.268,2.983-5.143,7.199-5.143,11.623v153.589   C218.121,178.019,225.156,185.062,233.842,185.062z" fill="#FFFFFF"/>
	<path d="M390.807,305.746c-20.346,0-36.895,16.555-36.895,36.895c0,20.341,16.549,36.895,36.895,36.895   c20.35,0,36.898-16.554,36.898-36.895C427.705,322.301,411.156,305.746,390.807,305.746z" fill="#FFFFFF"/>
	<path d="M486.195,360.654l-13.297-7.675c0.438-3.43,1.049-6.795,1.049-10.337c0-3.542-0.611-6.915-1.049-10.345l13.297-7.674   c3.332-1.926,5.756-5.088,6.74-8.801c1.006-3.711,0.486-7.668-1.434-10.998l-17.604-30.476c-2.684-4.648-7.555-7.246-12.566-7.246   c-2.459,0-4.951,0.622-7.23,1.94l-13.217,7.628c-5.561-4.223-11.465-7.983-17.984-10.717v-14.93   c0-8.007-6.486-14.494-14.492-14.494h-35.199c-8.006,0-14.492,6.486-14.492,14.494v14.93c-6.52,2.734-12.424,6.494-17.988,10.717   l-13.213-7.635c-2.219-1.286-4.723-1.94-7.246-1.94c-1.248,0-2.508,0.162-3.752,0.493c-3.709,0.995-6.879,3.422-8.805,6.753   l-17.598,30.482c-3.992,6.932-1.631,15.794,5.307,19.799l6.971,4.027c0.99,0.509,1.912,1.043,2.848,1.641l3.479,2.006   c-0.016,0.203-0.029,0.404-0.065,0.607c3.346,2.734,6.389,5.84,8.588,9.681l14.006,24.246c4.82,8.386,6.1,18.141,3.592,27.539   c-1.484,5.605-4.252,10.651-8.02,14.85c1.455,1.624,2.684,3.388,3.816,5.215l10.092-5.829c5.565,4.229,11.453,7.989,17.988,10.723   v14.93c0,8.006,6.486,14.492,14.492,14.492h35.199c8.006,0,14.492-6.486,14.492-14.492v-14.93   c6.535-2.733,12.424-6.493,17.984-10.723l13.217,7.635c2.215,1.285,4.723,1.939,7.246,1.939c1.244,0,2.508-0.162,3.752-0.492   c3.703-0.997,6.873-3.422,8.799-6.754l17.604-30.483C495.494,373.521,493.133,364.656,486.195,360.654z M390.807,396.1   c-29.469,0-53.459-23.979-53.459-53.458c0-29.479,23.99-53.458,53.459-53.458c29.473,0,53.457,23.979,53.457,53.458   C444.264,372.121,420.279,396.1,390.807,396.1z" fill="#FFFFFF"/>
	<path d="M305.5,423.51l-10.563-6.09c0.338-2.726,0.822-5.396,0.822-8.21c0-2.806-0.484-5.482-0.822-8.208l10.563-6.09   c2.635-1.529,4.561-4.037,5.353-6.988c0.793-2.952,0.373-6.083-1.146-8.735l-13.977-24.182c-2.137-3.696-6.002-5.759-9.965-5.759   c-1.959,0-3.93,0.502-5.742,1.545l-10.498,6.059c-4.398-3.356-9.107-6.342-14.266-8.508v-11.848   c0-6.359-5.158-11.501-11.518-11.501h-27.934c-6.355,0-11.498,5.142-11.498,11.501v11.848c-5.178,2.166-9.867,5.151-14.271,8.508   l-10.514-6.065c-1.744-1.019-3.719-1.538-5.721-1.538c-1.006,0-2.01,0.13-2.994,0.396c-2.945,0.784-5.453,2.709-6.99,5.355   l-13.959,24.188c-3.168,5.509-1.293,12.544,4.205,15.724l10.547,6.09c-0.324,2.726-0.809,5.402-0.809,8.208   c0,2.814,0.484,5.484,0.809,8.2l-10.547,6.09c-5.498,3.18-7.373,10.217-4.205,15.717l13.959,24.205   c1.537,2.637,4.045,4.562,6.99,5.354c0.984,0.266,1.988,0.396,2.994,0.396c1.988,0,3.977-0.524,5.721-1.543l10.498-6.059   c4.42,3.355,9.109,6.34,14.287,8.508v11.855c0,6.349,5.143,11.5,11.498,11.5h27.934c6.359,0,11.518-5.151,11.518-11.5v-11.855   c5.18-2.168,9.867-5.152,14.266-8.508l10.498,6.059c1.764,1.019,3.738,1.543,5.742,1.543c1.004,0,2.004-0.131,2.979-0.396   c2.939-0.792,5.463-2.717,6.986-5.354l13.977-24.198C312.877,433.725,311.002,426.688,305.5,423.51z M229.766,440.931   c-17.5,0-31.701-14.202-31.701-31.721c0-17.517,14.201-31.719,31.701-31.719c17.539,0,31.736,14.202,31.736,31.719   C261.502,426.729,247.305,440.931,229.766,440.931z" fill="#FFFFFF"/>
</g>
<g>
</g>
<g>
</g>
<g>
</g>
<g>
</g>
<g>
</g>
<g>
</g>
<g>
</g>
<g>
</g>
<g>
</g>
<g>
</g>
<g>
</g>
<g>
</g>
<g>
</g>
<g>
</g>
<g>
</g>
</svg>
