<?xml version="1.0" encoding="iso-8859-1"?>
<!-- Generator: Adobe Illustrator 19.0.0, SVG Export Plug-In . SVG Version: 6.00 Build 0)  -->
<svg xmlns="http://www.w3.org/2000/svg" xmlns:xlink="http://www.w3.org/1999/xlink" version="1.1" id="Layer_1" x="0px" y="0px" viewBox="0 0 472.615 472.615" style="enable-background:new 0 0 472.615 472.615;" xml:space="preserve" width="512px" height="512px">
<g>
	<g>
		<path d="M240.385,246.121l-80.293,80.293c20.593,17.439,47.177,28.014,76.216,28.014c61.831,0,112.624-47.755,117.654-108.308    H240.385z" fill="#FFFFFF"/>
	</g>
</g>
<g>
	<g>
		<path d="M472.615,274.117V198.4l-55.335-9.255c-4.332-16.641-10.929-32.492-19.692-47.458L430.178,96l-53.563-53.563    l-45.686,32.591c-14.966-8.763-30.917-15.36-47.557-19.692L274.215,0H198.4l-9.157,55.335    c-16.64,4.332-32.591,10.929-47.557,19.692L96,42.437L42.437,96l32.591,45.686c-8.763,14.966-15.36,30.817-19.692,47.458L0,198.4    v75.717l55.335,9.254c4.332,16.641,10.929,32.592,19.692,47.558l-32.591,45.686L96,430.178l45.686-32.689    c14.966,8.861,30.917,15.458,47.557,19.791l9.157,55.335h75.815l9.157-55.335c16.64-4.332,32.591-10.93,47.557-19.791    l45.686,32.689l53.563-53.563l-32.591-45.686c8.763-14.966,15.36-30.917,19.692-47.558L472.615,274.117z M236.308,374.121    c-76.01,0-137.846-61.837-137.846-137.846S160.298,98.429,236.308,98.429c76.009,0,137.846,61.837,137.846,137.846    S312.317,374.121,236.308,374.121z" fill="#FFFFFF"/>
	</g>
</g>
<g>
	<g>
		<path d="M118.154,236.275c0,29.038,10.574,55.623,28.014,76.216l80.294-80.292V118.621    C165.909,123.65,118.154,174.445,118.154,236.275z" fill="#FFFFFF"/>
	</g>
</g>
<g>
	<g>
		<path d="M246.154,118.621v107.808h107.808C349.203,169.131,303.451,123.381,246.154,118.621z" fill="#FFFFFF"/>
	</g>
</g>
<g>
</g>
<g>
</g>
<g>
</g>
<g>
</g>
<g>
</g>
<g>
</g>
<g>
</g>
<g>
</g>
<g>
</g>
<g>
</g>
<g>
</g>
<g>
</g>
<g>
</g>
<g>
</g>
<g>
</g>
</svg>
