<?xml version="1.0" encoding="utf-8"?>
<!-- Generator: Adobe Illustrator 16.0.0, SVG Export Plug-In . SVG Version: 6.00 Build 0)  -->
<!DOCTYPE svg PUBLIC "-//W3C//DTD SVG 1.1//EN" "http://www.w3.org/Graphics/SVG/1.1/DTD/svg11.dtd">
<svg version="1.1" xmlns="http://www.w3.org/2000/svg" xmlns:xlink="http://www.w3.org/1999/xlink" x="0px" y="0px" width="2073px"
	 height="700px" viewBox="0 0 2073 700" enable-background="new 0 0 2073 700" xml:space="preserve">
<g id="Layer_1">
	<g>
		<path fill-rule="evenodd" clip-rule="evenodd" fill="#3C1B52" d="M816.29,435.329c-10.899,0-21.409-0.033-31.919,0.036
			c-1.503,0.01-1.758-0.78-1.93-1.891c-1.58-10.167-3.202-20.327-4.701-30.506c-0.254-1.728-0.668-2.474-2.631-2.431
			c-6.559,0.142-13.121,0.097-19.682,0.023c-1.678-0.018-2.423,0.223-2.724,2.227c-1.54,10.267-3.399,20.485-4.989,30.746
			c-0.242,1.565-0.786,1.821-2.143,1.816c-10.035-0.04-20.069-0.086-30.103,0.032c-2.046,0.024-2.341-0.626-1.998-2.389
			c2.05-10.563,4.054-21.134,6.054-31.706c3.963-20.955,7.917-41.913,11.867-62.871c4.109-21.809,8.223-43.616,12.29-65.433
			c0.323-1.735,1.089-2.226,2.849-2.214c12.253,0.085,24.507,0.072,36.761,0.014c1.673-0.008,2.415,0.259,2.766,2.192
			c3.302,18.245,6.769,36.46,10.173,54.687c4.164,22.288,8.318,44.578,12.471,66.868
			C811.219,408.037,813.727,421.546,816.29,435.329z M765.246,315.595c-0.363,1.524-0.663,2.431-0.789,3.36
			c-2.596,19.255-5.135,38.518-7.811,57.761c-0.245,1.762,0.026,2.149,1.727,2.114c4.434-0.091,8.874-0.104,13.308,0.008
			c1.687,0.043,2.19-0.474,1.956-2.114c-1.074-7.522-2.092-15.053-3.123-22.58C768.791,341.565,767.076,328.986,765.246,315.595z"/>
		<path fill-rule="evenodd" clip-rule="evenodd" fill="#3C1B52" d="M982.04,325.178c0-17.652,0.048-34.631-0.057-51.607
			c-0.015-2.281,0.584-2.843,2.831-2.812c9.356,0.133,18.717,0.105,28.074,0.013c1.767-0.018,2.237,0.408,2.235,2.214
			c-0.054,53.354-0.055,106.708,0.005,160.062c0.002,1.963-0.594,2.339-2.408,2.321c-9.455-0.087-18.911-0.096-28.365,0.007
			c-1.904,0.021-2.51-0.494-2.354-2.381c0.167-2.01,0.038-4.044,0.038-6.205c-1.386,0.004-1.961,1.149-2.771,1.826
			c-6.214,5.192-13.042,8.939-21.41,8.664c-13.613-0.449-22.133-8.118-24.963-22.271c-0.775-3.879-1.239-7.784-1.23-11.757
			c0.039-18.138-0.02-36.276,0.061-54.414c0.025-5.916,1.243-11.667,3.567-17.113c6.36-14.909,19.38-18.358,33.458-14.237
			C973.571,318.898,977.687,321.716,982.04,325.178z M982.04,376.186c0-10.993,0-21.985,0-32.979c0-4.792,0-4.792-4.497-6.183
			c-6.408-1.981-10.619,0.318-12.075,6.824c-0.5,2.233-0.629,4.589-0.636,6.889c-0.051,16.971-0.046,33.942-0.005,50.914
			c0.006,2.207,0.156,4.441,0.522,6.616c1.172,6.957,5.787,9.519,12.416,7.003c0.717-0.272,1.413-0.601,2.127-0.881
			c1.597-0.627,2.217-1.642,2.2-3.491C981.987,399.328,982.04,387.757,982.04,376.186z"/>
		<path fill-rule="evenodd" clip-rule="evenodd" fill="#3C1B52" d="M879.566,424.805c-2.989,2.236-5.554,4.384-8.337,6.195
			c-7.665,4.989-15.952,7.684-25.168,5.653c-8.536-1.882-12.646-8.188-14.985-15.942c-0.887-2.937-1.292-5.999-1.29-9.112
			c0.018-30.489,0.019-60.979-0.056-91.468c-0.005-1.956,0.594-2.357,2.422-2.34c9.358,0.088,18.719,0.125,28.075-0.021
			c2.237-0.035,2.646,0.616,2.64,2.715c-0.073,28.271-0.048,56.54-0.051,84.811c0,1.641,0.035,3.256,0.5,4.865
			c1.136,3.934,3.9,5.579,7.92,4.597c0.374-0.091,0.749-0.176,1.119-0.28c7.016-2.007,7.211-2.265,7.211-9.533
			c0-28.077,0.036-56.154-0.063-84.231c-0.009-2.467,0.659-2.979,3.015-2.941c8.971,0.149,17.946,0.141,26.917,0.006
			c2.302-0.035,3.099,0.404,3.093,2.924c-0.088,37.339-0.073,74.679-0.023,112.019c0.003,1.865-0.22,2.696-2.424,2.666
			c-9.454-0.133-18.911-0.113-28.365-0.008c-1.847,0.021-2.285-0.521-2.188-2.261C879.676,430.467,879.566,427.803,879.566,424.805z
			"/>
		<path fill-rule="evenodd" clip-rule="evenodd" fill="#3C1B52" d="M1218.305,329.592c5.271-4.876,10.436-8.942,16.681-11.453
			c5.235-2.104,10.665-2.824,16.146-1.869c8.024,1.399,12.577,6.844,15.223,14.188c1.59,4.416,1.93,9.008,1.931,13.644
			c0.007,29.619-0.011,59.238,0.043,88.856c0.003,1.813-0.357,2.445-2.327,2.422c-9.357-0.113-18.717-0.121-28.074,0.003
			c-2.094,0.026-2.476-0.621-2.471-2.575c0.065-27.496,0.052-54.992,0.028-82.488c-0.002-1.826-0.137-3.664-0.382-5.474
			c-0.579-4.28-3.553-6.347-7.782-5.48c-0.844,0.172-1.674,0.435-2.488,0.717c-6.189,2.148-6.526,2.625-6.526,9.096
			c0,27.786-0.025,55.572,0.049,83.357c0.005,2.179-0.426,2.896-2.769,2.857c-9.355-0.153-18.716-0.105-28.074-0.026
			c-1.687,0.016-2.282-0.272-2.279-2.16c0.064-37.723,0.06-75.446,0.01-113.169c-0.003-1.747,0.381-2.271,2.21-2.253
			c9.551,0.102,19.104,0.098,28.653,0.004c1.779-0.018,2.339,0.412,2.243,2.224C1218.189,322.992,1218.305,325.988,1218.305,329.592
			z"/>
		<path fill-rule="evenodd" clip-rule="evenodd" fill="#3C1B52" d="M1087.43,376.486c0-8.295-0.138-16.591,0.028-24.882
			c0.378-18.896,12.556-32.433,31.381-35.009c9.558-1.309,19.056-1.166,28.148,2.448c11.336,4.506,17.173,13.448,19.168,25.104
			c1.867,10.904,0.735,21.937,1.037,32.908c0.062,2.249-1.552,1.516-2.604,1.519c-13.888,0.038-27.777,0.114-41.664-0.052
			c-2.682-0.032-3.176,0.775-3.061,3.205c0.365,7.696-0.488,15.426,0.547,23.108c0.153,1.137,0.347,2.287,0.697,3.375
			c1.197,3.718,3.76,5.709,7.117,5.645c3.875-0.076,6.771-2.309,7.795-6.092c1.13-4.169,0.548-8.438,0.619-12.664
			c0.084-4.997,0.02-4.999,5.167-4.999c7.715,0,15.432-0.012,23.146,0.016c0.945,0.003,2.251-0.473,2.232,1.335
			c-0.081,7.788,0.475,15.631-1.884,23.226c-3.9,12.559-13.079,19.133-25.426,21.511c-10.832,2.087-21.709,1.916-32.015-2.654
			c-13.365-5.926-19.548-16.905-20.325-31.014c-0.477-8.653-0.089-17.354-0.089-26.034
			C1087.441,376.486,1087.436,376.486,1087.43,376.486z M1128.342,362.974c2.678,0,6.322,1.059,7.78-0.274
			c1.719-1.573,0.397-5.254,0.522-8.018c0.073-1.633,0.03-3.271-0.003-4.907c-0.042-2.034-0.431-4.024-1.252-5.875
			c-1.284-2.894-4.507-4.726-7.728-4.549c-3.32,0.182-5.578,1.978-6.652,5.403c-1.019,3.248-1.153,6.608-1.096,9.98
			c0.046,2.678-0.896,6.226,0.453,7.804C1121.94,364.378,1125.603,362.849,1128.342,362.974z"/>
		<path fill-rule="evenodd" clip-rule="evenodd" fill="#3C1B52" d="M1380.955,376.533c0-8.294-0.138-16.591,0.028-24.882
			c0.379-18.92,12.573-32.506,31.335-35.053c9.558-1.299,19.05-1.173,28.151,2.43c11.348,4.492,17.199,13.423,19.206,25.074
			c1.876,10.901,0.739,21.936,1.048,32.907c0.063,2.224-1.479,1.568-2.563,1.57c-13.792,0.03-27.585,0.111-41.374-0.056
			c-2.811-0.033-3.563,0.652-3.413,3.447c0.416,7.789-0.476,15.617,0.593,23.396c0.949,6.907,5.514,10.159,11.109,7.779
			c4.068-1.729,4.88-5.472,5.059-9.32c0.184-3.946,0.123-7.909,0.013-11.86c-0.044-1.565,0.474-1.908,1.954-1.897
			c8.873,0.066,17.746,0.028,26.619,0.039c0.916,0.001,2.006-0.278,1.991,1.297c-0.076,7.788,0.482,15.636-1.868,23.229
			c-3.884,12.553-13.042,19.158-25.396,21.543c-10.831,2.09-21.701,1.929-32.017-2.627c-13.382-5.909-19.569-16.88-20.366-30.981
			c-0.488-8.653-0.091-17.355-0.091-26.035C1380.968,376.533,1380.962,376.533,1380.955,376.533z M1421.862,362.979
			c2.678,0,6.32,1.058,7.783-0.275c1.724-1.571,0.398-5.253,0.524-8.017c0.075-1.632,0.031-3.271-0.002-4.906
			c-0.041-2.035-0.43-4.024-1.25-5.876c-1.284-2.896-4.499-4.729-7.724-4.556c-3.319,0.179-5.583,1.976-6.657,5.398
			c-1.02,3.248-1.154,6.608-1.097,9.98c0.045,2.678-0.897,6.222,0.449,7.806C1415.462,364.382,1419.123,362.845,1421.862,362.979z"
			/>
		<path fill-rule="evenodd" clip-rule="evenodd" fill="#3C1B52" d="M1319.092,376.274c0.003,8.392-0.002,16.784,0.006,25.175
			c0.003,2.902,0.292,5.788,1.188,8.547c1.033,3.18,3.359,4.627,6.853,4.533c3.214-0.086,5.438-1.738,6.298-4.888
			c0.377-1.377,0.61-2.834,0.637-4.26c0.092-5.014,0.189-10.034,0.028-15.044c-0.074-2.304,0.392-3.137,2.925-3.088
			c8.871,0.172,17.747,0.118,26.62,0.024c1.851-0.02,2.494,0.413,2.419,2.363c-0.28,7.213,0.607,14.491-0.871,21.632
			c-2.559,12.36-10.225,20.27-22.15,23.8c-10.339,3.062-20.895,3.237-31.344,0.312c-15.279-4.277-25.362-16.954-25.609-32.788
			c-0.271-17.357-0.3-34.726,0.005-52.082c0.314-17.955,12.938-31.524,30.918-33.895c9.653-1.273,19.198-1.087,28.489,2.271
			c12.311,4.45,19.88,14.635,20.392,27.687c0.197,5.01,0.046,10.031,0.16,15.045c0.033,1.466-0.311,1.98-1.886,1.968
			c-9.356-0.075-18.713-0.084-28.068,0.005c-1.797,0.017-1.989-0.722-1.974-2.209c0.052-4.821,0.067-9.646-0.074-14.466
			c-0.14-4.793-2.225-7.702-5.653-8.295c-4.954-0.854-7.969,1.4-8.729,6.728c-0.353,2.473-0.533,4.988-0.555,7.486
			C1319.046,360.648,1319.09,368.462,1319.092,376.274z"/>
		<path fill-rule="evenodd" clip-rule="evenodd" fill="#3C1B52" d="M1520.236,268.027c10.723-0.169,20.705,1.943,28.288,10.337
			c5.276,5.841,7.528,13.066,9.001,20.586c0.518,2.64,0.752,5.333,1.174,7.993c0.253,1.599-0.207,2.434-1.934,2.791
			c-2.813,0.582-5.602,1.339-8.334,2.228c-2.16,0.702-2.972,0.308-3.07-2.137c-0.207-5.109-1.29-10.104-3.012-14.917
			c-3.782-10.583-10.667-15.3-21.94-15.05c-4.343,0.096-8.597,0.689-12.638,2.52c-6.573,2.979-10.098,8.153-10.933,15.144
			c-1.031,8.64,1.231,16.355,6.942,23.042c5.598,6.554,12.255,12.012,18.385,18.013c8.815,8.629,18.41,16.484,25.991,26.331
			c6.545,8.5,11.373,17.624,12.485,28.619c2.521,24.948-12.979,41.957-38.079,41.466c-12.614-0.246-23.436-4.034-30.919-14.862
			c-3.822-5.528-6.163-11.679-7.586-18.201c-0.697-3.195-1.111-6.436-1.408-9.698c-0.127-1.387,0.249-1.812,1.54-2.15
			c3.429-0.9,6.84-1.899,10.188-3.061c1.589-0.551,1.691,0.018,1.851,1.351c0.777,6.5,2.124,12.856,4.537,18.991
			c4.731,12.03,13.478,16.088,26.2,15.006c16.622-1.414,20.577-13.772,19.339-27.766c-0.906-10.249-6.88-17.783-13.592-24.789
			c-11.55-12.056-24.062-23.134-35.92-34.878c-6.341-6.279-11.173-13.489-13.049-22.342c-1.664-7.853-1.552-15.723,1.025-23.381
			c4.036-11.996,15.854-20.356,29.683-21.169C1516.375,267.93,1518.309,268.027,1520.236,268.027z"/>
		<path fill-rule="evenodd" clip-rule="evenodd" fill="#3C1B52" d="M1036.005,376.568c0-18.523,0.069-37.047-0.074-55.569
			c-0.021-2.784,0.861-3.262,3.371-3.223c9.163,0.141,18.33,0.115,27.494,0.008c1.93-0.023,2.396,0.542,2.394,2.404
			c-0.05,37.626-0.056,75.251,0.013,112.877c0.003,2.028-0.704,2.313-2.467,2.3c-9.357-0.076-18.717-0.106-28.073,0.017
			c-2.129,0.028-2.726-0.451-2.714-2.665C1036.048,414.001,1036.005,395.285,1036.005,376.568z"/>
		<path fill-rule="evenodd" clip-rule="evenodd" fill="#3C1B52" d="M1624.341,420.254c-3.262,3.423-6.163,6.169-9.486,8.431
			c-4.772,3.249-9.969,5.425-15.72,5.995c-11.506,1.141-18.915-4.798-20.758-16.336c-0.491-3.069-0.598-6.133-0.598-9.218
			c-0.003-30.007,0.027-60.015-0.059-90.022c-0.008-2.386,0.547-3.19,2.988-2.994c2.876,0.231,5.797,0.218,8.677,0.006
			c2.563-0.189,3.402,0.489,3.389,3.256c-0.121,24.701-0.079,49.402-0.063,74.103c0.003,5.692,0.079,11.384,0.137,17.076
			c0.007,0.77,0.028,1.551,0.16,2.306c1.529,8.717,7.102,12.159,15.735,9.529c5.955-1.813,10.632-5.657,14.921-10.029
			c1.055-1.074,0.655-2.359,0.656-3.556c0.025-29.333,0.02-58.665,0.02-87.997c0-4.639,0-4.639,4.495-4.639
			c2.605,0,5.22,0.136,7.813-0.044c2.046-0.141,2.578,0.527,2.561,2.556c-0.098,11.577-0.047,23.156-0.047,34.734
			c0,25.569-0.04,51.14,0.062,76.708c0.01,2.437-0.594,3.112-2.99,2.952c-3.362-0.226-6.752-0.119-10.127-0.028
			c-1.413,0.038-1.825-0.441-1.792-1.816C1624.396,427.804,1624.341,424.379,1624.341,420.254z"/>
		<path fill-rule="evenodd" clip-rule="evenodd" fill="#3C1B52" d="M1822.894,418.105c-2.375,4.037-4.797,7.791-8.294,10.774
			c-7.245,6.182-15.552,7.605-24.292,4.436c-8.507-3.085-13.076-9.932-14.473-18.66c-2.528-15.802,2.604-28.395,16.368-37.1
			c8.861-5.604,18.331-10.039,27.84-14.379c1.654-0.754,2.281-1.553,2.227-3.365c-0.221-7.406,0.343-14.844-1.184-22.188
			c-1.816-8.736-5.624-12.235-13.421-12.177c-8.541,0.063-14.08,4.653-15.648,12.815c-0.606,3.156-0.66,6.324-0.563,9.498
			c0.046,1.503-0.376,2.008-1.92,1.936c-3.564-0.168-7.136-0.221-10.703-0.2c-1.538,0.008-1.943-0.563-1.891-2.051
			c0.19-5.412,0.759-10.767,2.561-15.892c3.584-10.198,11.388-15.021,21.612-16.623c5.871-0.92,11.747-0.854,17.479,0.741
			c10.253,2.853,14.788,10.594,16.852,20.313c1.245,5.87,1.637,11.824,1.65,17.805c0.049,21.606,0.033,43.214,0.119,64.82
			c0.018,4.238,0.298,8.481,0.631,12.708c0.117,1.506-0.34,1.769-1.691,1.726c-2.891-0.094-5.808-0.243-8.674,0.039
			c-2.295,0.226-2.77-0.857-2.988-2.692C1824.001,426.289,1823.431,422.199,1822.894,418.105z M1822.231,372.072
			c-6.626,3.426-12.773,6.893-18.883,10.447c-10.786,6.274-14.773,15.624-13.036,27.738c1.009,7.042,5.592,11.556,12.249,11.984
			c7.1,0.458,17.903-7.157,19.582-13.821c0.115-0.458,0.085-0.958,0.085-1.438C1822.232,395.521,1822.231,384.059,1822.231,372.072z
			"/>
		<path fill-rule="evenodd" clip-rule="evenodd" fill="#3C1B52" d="M1683.5,373.294c0.202,11.318-0.36,25.304,0.258,39.279
			c0.357,8.058,3.789,10.962,11.879,10.251c1.344-0.118,2.771,0.008,4.013-0.415c2.211-0.751,2.884-0.218,2.685,2.106
			c-0.196,2.298-0.074,4.626-0.028,6.939c0.021,1.063-0.074,1.881-1.392,2.052c-5.839,0.758-11.671,1.249-17.544,0.3
			c-7.959-1.287-11.797-6.565-13.465-13.886c-0.857-3.76-1.195-7.592-1.192-11.463c0.021-26.519-0.037-53.039,0.085-79.558
			c0.012-2.657-0.748-3.214-3.176-3.044c-3.071,0.216-6.172-0.042-9.252,0.09c-1.688,0.071-2.183-0.501-2.063-2.124
			c0.133-1.822,0.155-3.673-0.004-5.491c-0.166-1.904,0.676-2.26,2.353-2.199c3.082,0.112,6.179-0.1,9.254,0.077
			c2.165,0.124,2.912-0.388,2.878-2.757c-0.149-10.315-0.021-20.636-0.105-30.953c-0.015-1.826,0.371-2.513,2.336-2.412
			c3.365,0.173,6.753,0.166,10.12,0.002c1.928-0.094,2.42,0.515,2.403,2.402c-0.089,10.221,0.074,20.446-0.12,30.664
			c-0.051,2.689,0.795,3.161,3.21,3.064c4.718-0.189,9.45,0.01,14.173-0.092c1.629-0.035,2.217,0.427,2.097,2.086
			c-0.18,2.475,0.724,5.649-0.502,7.245c-1.154,1.503-4.503,0.371-6.885,0.431c-3.18,0.078-6.371,0.151-9.543-0.028
			c-2.042-0.115-2.533,0.522-2.521,2.533C1683.543,342.474,1683.5,356.553,1683.5,373.294z"/>
		<path fill-rule="evenodd" clip-rule="evenodd" fill="#3C1B52" d="M1734.726,331.301c5.335-7.488,11.743-13.149,20.719-15.446
			c2.337-0.598,4.712-0.92,7.138-0.892c1.217,0.014,1.699,0.445,1.683,1.709c-0.058,4.242-0.092,8.488,0.013,12.729
			c0.041,1.67-0.82,1.297-1.757,1.1c-11.145-2.339-19.769,1.536-26.333,10.608c-1.063,1.47-1.499,2.963-1.495,4.789
			c0.048,28.064,0.001,56.129,0.092,84.192c0.008,2.364-0.472,3.187-2.939,2.981c-2.97-0.245-5.986-0.223-8.96-0.007
			c-2.445,0.177-3.232-0.402-3.203-3.07c0.161-14.175,0.076-28.353,0.076-42.529c0-22.76,0.033-45.52-0.051-68.279
			c-0.009-2.313,0.462-3.243,2.962-3.077c3.36,0.224,6.749,0.129,10.122,0.022c1.508-0.048,2.001,0.388,1.968,1.929
			C1734.664,322.472,1734.726,326.887,1734.726,331.301z"/>
		<path fill-rule="evenodd" clip-rule="evenodd" fill="#3C1B52" d="M1052.697,274.971c4.728,0,9.457,0.073,14.182-0.039
			c1.698-0.04,2.358,0.287,2.32,2.177c-0.125,6.269-0.093,12.542-0.016,18.812c0.019,1.606-0.419,2.148-2.102,2.136
			c-9.744-0.077-19.489-0.069-29.233-0.006c-1.503,0.011-1.989-0.384-1.97-1.927c0.079-6.366,0.085-12.735-0.004-19.103
			c-0.023-1.616,0.4-2.126,2.061-2.09C1042.854,275.041,1047.776,274.971,1052.697,274.971z"/>
	</g>
	<g>
		<path fill="#3C1B52" d="M1868.632,258.479h-12.384v-10.464h38.688v10.464h-12.096v67.296h-14.208V258.479z"/>
		<path fill="#3C1B52" d="M1903.383,248.015h14.688l11.04,53.856l11.424-53.856h14.304l1.44,77.76h-10.561l-1.151-54.048
			l-11.04,54.048h-8.544l-11.232-54.24l-1.056,54.24h-10.656L1903.383,248.015z"/>
	</g>
</g>
<g id="Layer_2">
	<path fill-rule="evenodd" clip-rule="evenodd" fill="#3C1B52" d="M308.142,49.301c5.843,18.124,12.095,34.95,17.33,52.134
		c4.442,14.584,8.016,29.359,10.185,44.426c4.421,30.724,7.573,61.571,2.625,92.514c-4.14,25.896-15.319,48.704-31.928,68.992
		c-14.368,17.547-33.323,28.053-54.407,34.424c-38.971,11.78-78.804,13.446-119.066,7.861
		c-30.116-4.178-59.273-12.272-88.334-20.837c-2.256-0.664-4.416-1.655-7.144-2.692c2.074-0.992,3.745-0.698,5.346-0.471
		c12.052,1.726,24.14,3.062,36.273,4.112c18.565,1.608,37.062,0.603,55.486-1.381c13.139-1.415,26.253-3.294,39.249-5.846
		c23.415-4.592,44.641-14.236,64.726-26.97c23.521-14.914,39.506-35.781,50.509-60.967c6.49-14.857,10.428-30.472,14.536-46.076
		c9.935-37.737,9.054-75.988,5.984-114.38c-0.475-5.936-0.76-11.882-1.907-17.753C307.232,54.492,307.057,52.484,308.142,49.301z"/>
	<path fill-rule="evenodd" clip-rule="evenodd" fill="#3C1B52" d="M384.957,55.061c-1.066,5.782-1.329,11.473-2.103,17.093
		c-4.138,30.066-4.278,60.224-0.088,90.267c2.406,17.254,4.565,34.62,10.369,51.243c8.617,24.683,21.657,46.746,39.233,66.023
		c7.725,8.472,17.918,13.931,27.514,19.983c12.293,7.755,26.043,12.239,39.802,16.572c33.767,10.638,68.381,15.185,103.729,13.826
		c17.182-0.66,34.372-1.538,51.397-4.257c1.512-0.24,3.07-0.761,4.992,0.323c-4.377,2.709-8.979,4.082-13.521,5.506
		c-19.668,6.169-38.871,13.839-59.122,18.128c-23.863,5.055-47.907,8.532-72.326,9.309c-15.378,0.487-30.701,0.473-45.847-2.654
		c-24.798-5.119-46.939-15.617-66.564-31.798c-16.324-13.458-25.72-31.194-32.967-50.363c-7.428-19.647-9.202-40.397-11.109-61.104
		c-2.823-30.657,0.999-60.758,7.292-90.657c4.498-21.362,10.419-42.354,16.83-63.213C382.958,57.695,383.982,56.563,384.957,55.061z
		"/>
	<path fill-rule="evenodd" clip-rule="evenodd" fill="#3C1B52" d="M661.773,403.312c-8.44-0.945-16.318-1.778-24.184-2.713
		c-18.19-2.161-36.459-2.578-54.713-1.654c-25.531,1.292-50.862,4.343-75.472,11.68c-25.506,7.604-48.122,20.586-67.788,38.361
		c-14.559,13.16-24.022,30.053-31.545,47.963c-8.59,20.446-13.613,41.971-17.883,63.637c-1.578,8.01-2.1,16.265-2.629,24.438
		c-1.662,25.677-0.67,51.31,1.819,76.897c0.448,4.588,0.813,9.185,1.217,13.803c-2.122,0.294-2.049-1.249-2.391-2.238
		c-7.119-20.616-14.478-41.156-19.933-62.304c-4.202-16.3-6.588-32.899-8.338-49.626c-1.241-11.861-1.813-23.758-2.183-35.647
		c-1.257-40.435,9.886-76.551,36.807-107.593c9.815-11.318,22.554-17.691,34.935-24.857c10.039-5.812,21.429-8.337,32.634-10.742
		c24.414-5.238,49.166-7.46,74.149-6.338c18.136,0.815,35.985,3.656,53.8,7.198c22.612,4.497,44.618,11.135,66.76,17.338
		C658.425,401.359,659.857,402.363,661.773,403.312z"/>
	<path fill-rule="evenodd" clip-rule="evenodd" fill="#3C1B52" d="M313.565,671.213c1.439-12.522,3.273-24.969,4.222-37.482
		c1.744-23.033,0.66-46.01-2.681-68.879c-1.758-12.033-2.791-24.189-5.959-35.979c-4.861-18.085-11.794-35.272-21.773-51.222
		c-5.769-9.222-12.021-18.068-19.363-26.042c-11.918-12.943-26.851-21.697-42.569-29.148c-16.708-7.919-34.644-11.991-52.433-16.616
		c-28.685-7.457-57.868-7.705-87.134-6.749c-14.002,0.459-27.991,1.635-41.921,3.287c-1.266,0.15-2.578,0.596-4.17-0.298
		c1.352-1.853,3.508-1.763,5.191-2.331c18.274-6.185,36.431-12.733,55.046-17.872c17.259-4.763,34.86-7.673,52.624-9.629
		c18.698-2.057,37.467-3.349,56.266-2.275c24.007,1.372,46.537,8.063,67.296,20.347c10.382,6.144,20.523,13.027,28.475,21.898
		c8.771,9.788,15.432,21.407,20.752,33.617c7.92,18.176,10.909,37.467,13.293,56.934c3.011,24.577,2.723,49.113-0.772,73.588
		c-2.976,20.83-7.475,41.357-13.198,61.614c-2.657,9.406-4.745,18.976-8.24,28.141C315.855,667.849,315.242,669.562,313.565,671.213
		z"/>
	<path fill-rule="evenodd" clip-rule="evenodd" fill="#3C1B52" d="M255.665,240.775c0.021,16.396-13.156,29.907-29.508,29.417
		c-16.79-0.502-29.292-11.491-29.08-29.644c0.23-19.752,13.238-29.067,29.092-29.126
		C242.577,211.362,254.785,221.781,255.665,240.775z"/>
	<path fill-rule="evenodd" clip-rule="evenodd" fill="#3C1B52" d="M472.035,458.09c19.049,1.324,30.22,13.51,29.883,30.116
		c-0.357,17.531-11.449,29.466-29.91,29.322c-18.879-0.148-29.379-11.869-29.643-29.564
		C442.122,471.699,452.92,459.398,472.035,458.09z"/>
	<path fill-rule="evenodd" clip-rule="evenodd" fill="#3C1B52" d="M258.392,484.343c-1.31,18.012-13.099,29.522-30.155,29.235
		c-19.563-0.328-29.502-15.061-29.148-30.086c0.403-17.062,12.544-29.377,30.195-29.027
		C246.092,454.797,257.798,466.682,258.392,484.343z"/>
	<path fill-rule="evenodd" clip-rule="evenodd" fill="#3C1B52" d="M492.664,240.775c0.021,16.396-13.156,29.907-29.508,29.417
		c-16.789-0.502-29.291-11.491-29.08-29.644c0.23-19.752,13.238-29.067,29.093-29.126
		C479.577,211.362,491.785,221.781,492.664,240.775z"/>
</g>
<g id="Layer_3" display="none">
	<linearGradient id="SVGID_1_" gradientUnits="userSpaceOnUse" x1="199.3413" y1="439.6055" x2="623.2286" y2="136.6856">
		<stop  offset="0" style="stop-color:#2A103B"/>
		<stop  offset="0.1162" style="stop-color:#2D113D"/>
		<stop  offset="0.2576" style="stop-color:#391542"/>
		<stop  offset="0.4122" style="stop-color:#4B1B4C"/>
		<stop  offset="0.5762" style="stop-color:#662359"/>
		<stop  offset="0.7476" style="stop-color:#8C2D6C"/>
		<stop  offset="0.9227" style="stop-color:#C13883"/>
		<stop  offset="1" style="stop-color:#E14092"/>
	</linearGradient>
	<path display="inline" fill-rule="evenodd" clip-rule="evenodd" fill="url(#SVGID_1_)" d="M65,88.949h521v521
		C586,609.949,65,659.816,65,88.949z"/>
</g>
</svg>
