<?xml version="1.0" encoding="iso-8859-1"?>
<!-- Generator: Adobe Illustrator 19.0.0, SVG Export Plug-In . SVG Version: 6.00 Build 0)  -->
<svg xmlns="http://www.w3.org/2000/svg" xmlns:xlink="http://www.w3.org/1999/xlink" version="1.1" id="Capa_1" x="0px" y="0px" viewBox="0 0 512 512" style="enable-background:new 0 0 512 512;" xml:space="preserve" width="512px" height="512px">
<g>
	<g>
		<g>
			<path d="M152.729,330.856C136.563,308.742,128,282.669,128,255.461c0-63.479,45.542-116.604,108.292-126.313     c5.208-0.802,9.042-5.281,9.042-10.542V11.211c0-2.99-1.25-5.844-3.458-7.865c-2.208-2.031-5.104-3.042-8.125-2.76     C102.666,11.888,0,123.846,0,255.461c0,60.042,21.313,118.479,60,164.542c1.917,2.281,4.709,3.667,7.709,3.792     c0.146,0.01,0.313,0.01,0.458,0.01c2.833,0,5.542-1.125,7.542-3.125l75.958-75.979     C155.396,340.982,155.833,335.106,152.729,330.856z" fill="#FFFFFF"/>
			<path d="M278.25,0.586c-2.938-0.271-5.917,0.74-8.125,2.76c-2.208,2.021-3.458,4.875-3.458,7.865v107.396     c0,5.26,3.833,9.74,9.042,10.542C338.458,138.856,384,191.981,384,255.461c0,70.583-57.417,128-128,128     c-27.208,0-53.292-8.552-75.417-24.74c-4.188-3.104-10.104-2.646-13.833,1.063l-75.958,75.979c-2.125,2.115-3.25,5.021-3.125,8     c0.146,2.99,1.521,5.781,3.813,7.708c46.042,38.688,104.458,59.99,164.521,59.99c141.167,0,256-114.844,256-256     C512,123.846,409.333,11.888,278.25,0.586z" fill="#FFFFFF"/>
		</g>
	</g>
</g>
<g>
</g>
<g>
</g>
<g>
</g>
<g>
</g>
<g>
</g>
<g>
</g>
<g>
</g>
<g>
</g>
<g>
</g>
<g>
</g>
<g>
</g>
<g>
</g>
<g>
</g>
<g>
</g>
<g>
</g>
</svg>
