<?xml version="1.0" encoding="iso-8859-1"?>
<!-- Generator: Adobe Illustrator 16.0.0, SVG Export Plug-In . SVG Version: 6.00 Build 0)  -->
<!DOCTYPE svg PUBLIC "-//W3C//DTD SVG 1.1//EN" "http://www.w3.org/Graphics/SVG/1.1/DTD/svg11.dtd">
<svg xmlns="http://www.w3.org/2000/svg" xmlns:xlink="http://www.w3.org/1999/xlink" version="1.1" id="Capa_1" x="0px" y="0px" width="512px" height="512px" viewBox="0 0 420.75 420.75" style="enable-background:new 0 0 420.75 420.75;" xml:space="preserve">
<g>
	<g>
		<path d="M210.375,153C177.862,153,153,177.862,153,210.375s24.862,57.375,57.375,57.375s57.375-24.862,57.375-57.375    S242.888,153,210.375,153z M210.375,248.625c-21.038,0-38.25-17.213-38.25-38.25c0-21.038,17.212-38.25,38.25-38.25    c21.037,0,38.25,17.212,38.25,38.25C248.625,231.412,231.412,248.625,210.375,248.625z" fill="#FFFFFF"/>
		<path d="M210.375,76.5C135.788,76.5,76.5,135.788,76.5,210.375c0,74.588,59.288,133.875,133.875,133.875    c74.588,0,133.875-59.287,133.875-133.875C344.25,135.788,284.963,76.5,210.375,76.5z M210.375,325.125    c-63.112,0-114.75-51.638-114.75-114.75s51.638-114.75,114.75-114.75s114.75,51.638,114.75,114.75    S273.487,325.125,210.375,325.125z" fill="#FFFFFF"/>
		<path d="M210.375,0C93.712,0,0,93.712,0,210.375C0,327.037,93.712,420.75,210.375,420.75    c116.662,0,210.375-93.713,210.375-210.375C420.75,93.712,327.037,0,210.375,0z M210.375,401.625    c-105.188,0-191.25-86.062-191.25-191.25s86.062-191.25,191.25-191.25s191.25,86.062,191.25,191.25    S315.562,401.625,210.375,401.625z" fill="#FFFFFF"/>
	</g>
</g>
<g>
</g>
<g>
</g>
<g>
</g>
<g>
</g>
<g>
</g>
<g>
</g>
<g>
</g>
<g>
</g>
<g>
</g>
<g>
</g>
<g>
</g>
<g>
</g>
<g>
</g>
<g>
</g>
<g>
</g>
</svg>
