<?xml version="1.0" encoding="iso-8859-1"?>
<!-- Generator: Adobe Illustrator 21.0.0, SVG Export Plug-In . SVG Version: 6.00 Build 0)  -->
<svg xmlns="http://www.w3.org/2000/svg" xmlns:xlink="http://www.w3.org/1999/xlink" version="1.1" id="Capa_1" x="0px" y="0px" viewBox="0 0 480 480" style="enable-background:new 0 0 480 480;" xml:space="preserve" width="512px" height="512px">
<g>
	<g>
		<path d="M104,220v56h16c3.784-0.002,7.052,2.649,7.832,6.352l2.024,9.648H136v-72H104z" fill="#FFFFFF"/>
	</g>
</g>
<g>
	<g>
		<polygon points="344,84 344,210.616 376,215.192 376,84   " fill="#FFFFFF"/>
	</g>
</g>
<g>
	<g>
		<path d="M264,124v114l17.6-13.2c3.535-2.651,8.549-1.935,11.2,1.6v0l3.2,4.272V124H264z" fill="#FFFFFF"/>
	</g>
</g>
<g>
	<g>
		<rect x="184" y="188" width="32" height="104" fill="#FFFFFF"/>
	</g>
</g>
<g>
	<g>
		<path d="M166.228,396.184c1.748-1.206,3.718-2.052,5.796-2.488h0.032L192,389.504v-19.008l-19.944-4.192    c-8.645-1.83-14.169-10.322-12.339-18.967c0.435-2.055,1.271-4.005,2.459-5.737l11.424-16.656L159.056,310.4l-16.616,11.456    c-7.277,5.013-17.24,3.178-22.253-4.098c-1.203-1.746-2.047-3.714-2.483-5.79l-4.2-19.968H94.496l-4.2,19.944    c-1.833,8.644-10.326,14.166-18.971,12.333c-2.051-0.435-3.996-1.268-5.725-2.453L48.944,310.4L34.4,324.944L45.824,341.6    c5.018,7.274,3.19,17.238-4.084,22.256c-1.748,1.206-3.718,2.052-5.796,2.488L16,370.496v19.008l19.944,4.192    c8.648,1.817,14.185,10.3,12.368,18.948c-0.437,2.078-1.282,4.048-2.488,5.796L34.4,435.056L48.944,449.6L65.6,438.176    c7.277-5.013,17.24-3.178,22.253,4.098c1.203,1.746,2.047,3.714,2.483,5.79L94.496,468h19.008l4.2-19.944    c1.82-8.647,10.305-14.182,18.952-12.362c2.073,0.436,4.039,1.28,5.784,2.482l16.616,11.424l14.544-14.544l-11.456-16.616    C157.126,411.166,158.955,401.202,166.228,396.184z M104,412c-17.673,0-32-14.327-32-32c0-17.673,14.327-32,32-32s32,14.327,32,32    C136,397.673,121.673,412,104,412z" fill="#FFFFFF"/>
	</g>
</g>
<g>
	<g>
		<path d="M441.856,345.816c-13.121-1.876-22.237-14.035-20.361-27.156c0.901-6.301,4.268-11.986,9.361-15.804L449.6,288.8    l-19.2-25.6l-18.752,14.056c-10.607,7.948-25.65,5.793-33.598-4.814c-3.813-5.089-5.451-11.483-4.554-17.778l3.312-23.2    l-31.672-4.528l-3.312,23.2c-1.872,13.122-14.026,22.242-27.148,20.371c-6.308-0.9-11.999-4.271-15.82-9.371L284.8,242.4    l-25.6,19.2l14.056,18.744c7.953,10.603,5.805,25.647-4.798,33.6c-5.092,3.819-11.493,5.46-17.794,4.56l-23.2-3.312l-4.528,31.672    l23.2,3.32c13.121,1.877,22.237,14.035,20.361,27.156c-0.901,6.301-4.268,11.986-9.361,15.804L238.4,407.2l19.2,25.6    l18.752-14.056c10.607-7.949,25.649-5.793,33.598,4.814c3.813,5.089,5.451,11.483,4.554,17.778l-3.312,23.2l31.672,4.528    l3.312-23.2c1.872-13.122,14.026-22.242,27.148-20.371c6.308,0.9,12,4.271,15.82,9.371L403.2,453.6l25.6-19.2l-14.056-18.744    c-7.953-10.603-5.805-25.647,4.798-33.6c5.092-3.819,11.493-5.46,17.794-4.56l23.2,3.312l4.528-31.672L441.856,345.816z M344,396    c-26.51,0-48-21.49-48-48c0-26.51,21.49-48,48-48c26.51,0,48,21.49,48,48C391.974,374.499,370.499,395.974,344,396z" fill="#FFFFFF"/>
	</g>
</g>
<g>
	<g>
		<rect x="184" y="460" width="16" height="16" fill="#FFFFFF"/>
	</g>
</g>
<g>
	<g>
		<rect x="216" y="460" width="16" height="16" fill="#FFFFFF"/>
	</g>
</g>
<g>
	<g>
		<rect x="248" y="460" width="16" height="16" fill="#FFFFFF"/>
	</g>
</g>
<g>
	<g>
		<path d="M0,4v288h78.144l2.024-9.648c0.78-3.703,4.047-6.354,7.832-6.352v-64c0-4.418,3.582-8,8-8h48c4.418,0,8,3.582,8,8v80h16    V180c0-4.418,3.582-8,8-8h48c4.418,0,8,3.582,8,8v112h29.464c-0.229-0.731-0.566-1.424-1-2.056L241.6,264.8    c-2.651-3.535-1.935-8.549,1.6-11.2l4.8-3.6V116c0-4.418,3.582-8,8-8h48c4.418,0,8,3.582,8,8v135.856    c2.796,3.375,7.799,3.845,11.174,1.049c1.535-1.271,2.535-3.074,2.802-5.049L328,233.712V76c0-4.418,3.582-8,8-8h48    c4.418,0,8,3.582,8,8v143.648c1.441,1.711,2.089,3.952,1.784,6.168l-4.448,31.112c-0.628,4.373,2.408,8.428,6.782,9.056    c2.103,0.302,4.239-0.245,5.938-1.52L427.2,245.6c3.535-2.651,8.549-1.935,11.2,1.6l25.6,34.136V292h16V4H0z M48,276H32v-56h16    V276z M48,204H32v-16h16V204z M327.841,45.597c0,0.001,0,0.002-0.001,0.003l-8,40l-15.68-3.2l4.496-22.504L92.048,186.904    l-8.096-13.808L297.824,47.728L278.4,43.84l3.2-15.68l40,8C325.929,37.043,328.723,41.268,327.841,45.597z M448,228h-16V108h16    V228z M448,92h-16V76h16V92z" fill="#FFFFFF"/>
	</g>
</g>
<g>
</g>
<g>
</g>
<g>
</g>
<g>
</g>
<g>
</g>
<g>
</g>
<g>
</g>
<g>
</g>
<g>
</g>
<g>
</g>
<g>
</g>
<g>
</g>
<g>
</g>
<g>
</g>
<g>
</g>
</svg>
